{
    "asset" : {
        "generator" : "Khronos glTF Blender I/O v1.3.48",
        "version" : "2.0"
    },
    "scene" : 0,
    "scenes" : [
        {
            "name" : "Scene",
            "nodes" : [
                6
            ]
        }
    ],
    "nodes" : [
        {
            "mesh" : 0,
            "name" : "\u0421\u0438\u043c\u043c\u0435\u0442\u0440\u0438\u044f_1_2",
            "translation" : [
                -1.9087685346603394,
                0.21525241434574127,
                0
            ]
        },
        {
            "children" : [
                0
            ],
            "name" : "Subdivision_Surface",
            "translation" : [
                -222.7376251220703,
                0.29036659002304077,
                0
            ]
        },
        {
            "mesh" : 1,
            "name" : "\u0421\u0438\u043c\u043c\u0435\u0442\u0440\u0438\u044f",
            "translation" : [
                -0.5303238034248352,
                0,
                0.02329261042177677
            ]
        },
        {
            "children" : [
                2
            ],
            "name" : "Subdivision_Surface_1",
            "translation" : [
                -4.384662628173828,
                -14.809829711914062,
                0
            ]
        },
        {
            "mesh" : 2,
            "name" : "\u0421\u0438\u043c\u043c\u0435\u0442\u0440\u0438\u044f_1",
            "translation" : [
                -83.28852844238281,
                -18.40772247314453,
                0
            ]
        },
        {
            "children" : [
                4
            ],
            "name" : "Subdivision_Surface_3",
            "translation" : [
                227.12228393554688,
                14.519462585449219,
                0
            ]
        },
        {
            "children" : [
                1,
                3,
                5
            ],
            "name" : "knife",
            "rotation" : [
                -1,
                0,
                0,
                7.549790126404332e-08
            ],
            "scale" : [
                0.009999999776482582,
                0.009999999776482582,
                0.009999999776482582
            ],
            "translation" : [
                1.34801185131073,
                0.8210862278938293,
                0.14809828996658325
            ]
        }
    ],
    "materials" : [
        {
            "doubleSided" : true,
            "emissiveFactor" : [
                0,
                0,
                0
            ],
            "name" : "\u041c\u0430\u0442\u0435\u0440\u0438\u0430\u043b.2",
            "pbrMetallicRoughness" : {
                "baseColorFactor" : [
                    0.6899999976158142,
                    0.6899999976158142,
                    0.6899999976158142,
                    1
                ],
                "metallicFactor" : 0,
                "roughnessFactor" : 0.4343145787715912
            }
        },
        {
            "doubleSided" : true,
            "emissiveFactor" : [
                0,
                0,
                0
            ],
            "name" : "\u041c\u0430\u0442\u0435\u0440\u0438\u0430\u043b.1",
            "pbrMetallicRoughness" : {
                "baseColorFactor" : [
                    0.4099999964237213,
                    0.33456000685691833,
                    0.12710000574588776,
                    1
                ],
                "metallicFactor" : 0,
                "roughnessFactor" : 0.4343145787715912
            }
        },
        {
            "doubleSided" : true,
            "emissiveFactor" : [
                0,
                0,
                0
            ],
            "name" : "\u041c\u0430\u0442\u0435\u0440\u0438\u0430\u043b",
            "pbrMetallicRoughness" : {
                "baseColorFactor" : [
                    0.800000011920929,
                    0.6506666541099548,
                    0.23999999463558197,
                    1
                ],
                "metallicFactor" : 0,
                "roughnessFactor" : 0.4343145787715912
            }
        }
    ],
    "meshes" : [
        {
            "name" : "\u041c\u0435\u0448.002",
            "primitives" : [
                {
                    "attributes" : {
                        "POSITION" : 0,
                        "NORMAL" : 1,
                        "TEXCOORD_0" : 2
                    },
                    "indices" : 3,
                    "material" : 0
                }
            ]
        },
        {
            "name" : "\u041c\u0435\u0448.001",
            "primitives" : [
                {
                    "attributes" : {
                        "POSITION" : 4,
                        "NORMAL" : 5,
                        "TEXCOORD_0" : 6
                    },
                    "indices" : 7,
                    "material" : 1
                }
            ]
        },
        {
            "name" : "\u041c\u0435\u0448",
            "primitives" : [
                {
                    "attributes" : {
                        "POSITION" : 8,
                        "NORMAL" : 9,
                        "TEXCOORD_0" : 10
                    },
                    "indices" : 11,
                    "material" : 2
                },
                {
                    "attributes" : {
                        "POSITION" : 12,
                        "NORMAL" : 13,
                        "TEXCOORD_0" : 14
                    },
                    "indices" : 15,
                    "material" : 1
                }
            ]
        }
    ],
    "accessors" : [
        {
            "bufferView" : 0,
            "componentType" : 5126,
            "count" : 9318,
            "max" : [
                233.7660675048828,
                47.23858642578125,
                5.641464710235596
            ],
            "min" : [
                -233.72103881835938,
                -55.61103439331055,
                -5.641464710235596
            ],
            "type" : "VEC3"
        },
        {
            "bufferView" : 1,
            "componentType" : 5126,
            "count" : 9318,
            "type" : "VEC3"
        },
        {
            "bufferView" : 2,
            "componentType" : 5126,
            "count" : 9318,
            "type" : "VEC2"
        },
        {
            "bufferView" : 3,
            "componentType" : 5123,
            "count" : 46968,
            "type" : "SCALAR"
        },
        {
            "bufferView" : 4,
            "componentType" : 5126,
            "count" : 3706,
            "max" : [
                38.69477462768555,
                96.92443084716797,
                14.60713005065918
            ],
            "min" : [
                -38.62593078613281,
                -96.92442321777344,
                -14.607131004333496
            ],
            "type" : "VEC3"
        },
        {
            "bufferView" : 5,
            "componentType" : 5126,
            "count" : 3706,
            "type" : "VEC3"
        },
        {
            "bufferView" : 6,
            "componentType" : 5126,
            "count" : 3706,
            "type" : "VEC2"
        },
        {
            "bufferView" : 7,
            "componentType" : 5123,
            "count" : 12864,
            "type" : "SCALAR"
        },
        {
            "bufferView" : 8,
            "componentType" : 5126,
            "count" : 1135,
            "max" : [
                112.61982727050781,
                51.37505340576172,
                24.606853485107422
            ],
            "min" : [
                31.00628662109375,
                -50.762550354003906,
                -24.606855392456055
            ],
            "type" : "VEC3"
        },
        {
            "bufferView" : 9,
            "componentType" : 5126,
            "count" : 1135,
            "type" : "VEC3"
        },
        {
            "bufferView" : 10,
            "componentType" : 5126,
            "count" : 1135,
            "type" : "VEC2"
        },
        {
            "bufferView" : 11,
            "componentType" : 5123,
            "count" : 4212,
            "type" : "SCALAR"
        },
        {
            "bufferView" : 12,
            "componentType" : 5126,
            "count" : 2092,
            "max" : [
                34.212730407714844,
                25.667984008789062,
                13.25074577331543
            ],
            "min" : [
                -114.3769302368164,
                -51.551963806152344,
                -13.25074577331543
            ],
            "type" : "VEC3"
        },
        {
            "bufferView" : 13,
            "componentType" : 5126,
            "count" : 2092,
            "type" : "VEC3"
        },
        {
            "bufferView" : 14,
            "componentType" : 5126,
            "count" : 2092,
            "type" : "VEC2"
        },
        {
            "bufferView" : 15,
            "componentType" : 5123,
            "count" : 8928,
            "type" : "SCALAR"
        }
    ],
    "bufferViews" : [
        {
            "buffer" : 0,
            "byteLength" : 111816,
            "byteOffset" : 0
        },
        {
            "buffer" : 0,
            "byteLength" : 111816,
            "byteOffset" : 111816
        },
        {
            "buffer" : 0,
            "byteLength" : 74544,
            "byteOffset" : 223632
        },
        {
            "buffer" : 0,
            "byteLength" : 93936,
            "byteOffset" : 298176
        },
        {
            "buffer" : 0,
            "byteLength" : 44472,
            "byteOffset" : 392112
        },
        {
            "buffer" : 0,
            "byteLength" : 44472,
            "byteOffset" : 436584
        },
        {
            "buffer" : 0,
            "byteLength" : 29648,
            "byteOffset" : 481056
        },
        {
            "buffer" : 0,
            "byteLength" : 25728,
            "byteOffset" : 510704
        },
        {
            "buffer" : 0,
            "byteLength" : 13620,
            "byteOffset" : 536432
        },
        {
            "buffer" : 0,
            "byteLength" : 13620,
            "byteOffset" : 550052
        },
        {
            "buffer" : 0,
            "byteLength" : 9080,
            "byteOffset" : 563672
        },
        {
            "buffer" : 0,
            "byteLength" : 8424,
            "byteOffset" : 572752
        },
        {
            "buffer" : 0,
            "byteLength" : 25104,
            "byteOffset" : 581176
        },
        {
            "buffer" : 0,
            "byteLength" : 25104,
            "byteOffset" : 606280
        },
        {
            "buffer" : 0,
            "byteLength" : 16736,
            "byteOffset" : 631384
        },
        {
            "buffer" : 0,
            "byteLength" : 17856,
            "byteOffset" : 648120
        }
    ],
    "buffers" : [
        {
            "byteLength" : 665976,
            "uri" : "data:application/octet-stream;base64,"
        }
    ]
}
